{
    "asset" : {
        "generator" : "Khronos glTF Blender I/O v1.7.33",
        "version" : "2.0"
    },
    "scene" : 0,
    "scenes" : [
        {
            "name" : "Scene",
            "nodes" : [
                3,
                8
            ]
        }
    ],
    "nodes" : [
        {
            "name" : "rat1_pCylinder24",
            "scale" : [
                0.009999999776482582,
                0.009999999776482582,
                0.009999999776482582
            ]
        },
        {
            "children" : [
                0
            ],
            "name" : "RootNode"
        },
        {
            "children" : [
                1
            ],
            "name" : "7ddf5450236c4a9c8d3be0c71ac40229.fbx",
            "rotation" : [
                0.7071068286895752,
                0,
                0,
                0.7071068286895752
            ]
        },
        {
            "children" : [
                2
            ],
            "name" : "Sketchfab_model",
            "rotation" : [
                -0.7071068286895752,
                0,
                0,
                0.7071068286895752
            ]
        },
        {
            "mesh" : 0,
            "name" : "rat1_pCylinder24_lambert1_0",
            "scale" : [
                1.5963467359542847,
                1.5963467359542847,
                1.5963467359542847
            ]
        },
        {
            "children" : [
                4
            ],
            "name" : "rat1_pCylinder24.001",
            "scale" : [
                0.009999999776482582,
                0.009999999776482582,
                0.009999999776482582
            ]
        },
        {
            "children" : [
                5
            ],
            "name" : "RootNode.001"
        },
        {
            "children" : [
                6
            ],
            "name" : "7ddf5450236c4a9c8d3be0c71ac40229.fbx.001",
            "rotation" : [
                0.7071068286895752,
                0,
                0,
                0.7071068286895752
            ]
        },
        {
            "children" : [
                7
            ],
            "name" : "Sketchfab_model.001",
            "rotation" : [
                -0.7071068286895752,
                0,
                0,
                0.7071068286895752
            ]
        }
    ],
    "materials" : [
        {
            "doubleSided" : true,
            "name" : "lambert1",
            "normalTexture" : {
                "index" : 0
            },
            "pbrMetallicRoughness" : {
                "baseColorTexture" : {
                    "index" : 1
                },
                "metallicRoughnessTexture" : {
                    "index" : 2
                },
                "roughnessFactor" : 0.5287635326385498
            }
        }
    ],
    "meshes" : [
        {
            "name" : "rat1_pCylinder24_lambert1_0.001",
            "primitives" : [
                {
                    "attributes" : {
                        "POSITION" : 0,
                        "NORMAL" : 1,
                        "TEXCOORD_0" : 2
                    },
                    "indices" : 3,
                    "material" : 0
                }
            ]
        }
    ],
    "textures" : [
        {
            "sampler" : 0,
            "source" : 0
        },
        {
            "sampler" : 0,
            "source" : 1
        },
        {
            "sampler" : 0,
            "source" : 2
        }
    ],
    "images" : [
        {
            "bufferView" : 4,
            "mimeType" : "image/png",
            "name" : "lambert1_normal"
        },
        {
            "bufferView" : 5,
            "mimeType" : "image/png",
            "name" : "lambert1_baseColor"
        },
        {
            "bufferView" : 6,
            "mimeType" : "image/png",
            "name" : "lambert1_metallicRoughness"
        }
    ],
    "accessors" : [
        {
            "bufferView" : 0,
            "componentType" : 5126,
            "count" : 612,
            "max" : [
                225.59994506835938,
                77.36577606201172,
                42.51353454589844
            ],
            "min" : [
                -110.69863891601562,
                -2.6396327018737793,
                -44.44182586669922
            ],
            "type" : "VEC3"
        },
        {
            "bufferView" : 1,
            "componentType" : 5126,
            "count" : 612,
            "type" : "VEC3"
        },
        {
            "bufferView" : 2,
            "componentType" : 5126,
            "count" : 612,
            "type" : "VEC2"
        },
        {
            "bufferView" : 3,
            "componentType" : 5123,
            "count" : 2274,
            "type" : "SCALAR"
        }
    ],
    "bufferViews" : [
        {
            "buffer" : 0,
            "byteLength" : 7344,
            "byteOffset" : 0
        },
        {
            "buffer" : 0,
            "byteLength" : 7344,
            "byteOffset" : 7344
        },
        {
            "buffer" : 0,
            "byteLength" : 4896,
            "byteOffset" : 14688
        },
        {
            "buffer" : 0,
            "byteLength" : 4548,
            "byteOffset" : 19584
        },
        {
            "buffer" : 0,
            "byteLength" : 1257473,
            "byteOffset" : 24132
        },
        {
            "buffer" : 0,
            "byteLength" : 1185891,
            "byteOffset" : 1281608
        },
        {
            "buffer" : 0,
            "byteLength" : 222,
            "byteOffset" : 2467500
        }
    ],
    "samplers" : [
        {
            "magFilter" : 9729,
            "minFilter" : 9987
        }
    ],
    "buffers" : [
        {
            "byteLength" : 2467724,
            "uri" : "data:application/octet-stream;base64,"
        }
    ]
}
